<svg width="37" height="37" viewBox="0 0 37 37" fill="none" xmlns="http://www.w3.org/2000/svg">
<path fill-rule="evenodd" clip-rule="evenodd" d="M34.6875 18.5C34.6875 18.1933 34.5657 17.8993 34.3488 17.6824C34.132 17.4656 33.8379 17.3438 33.5313 17.3438L6.25994 17.3438L13.5374 10.0686C13.7545 9.85152 13.8765 9.55705 13.8765 9.25001C13.8765 8.94296 13.7545 8.64849 13.5374 8.43138C13.3203 8.21427 13.0258 8.09229 12.7188 8.09229C12.4117 8.09229 12.1172 8.21427 11.9001 8.43138L2.65012 17.6814C2.54245 17.7888 2.45702 17.9164 2.39873 18.0569C2.34044 18.1973 2.31043 18.3479 2.31043 18.5C2.31043 18.6521 2.34044 18.8027 2.39873 18.9432C2.45702 19.0836 2.54245 19.2112 2.65012 19.3186L11.9001 28.5686C12.1172 28.7857 12.4117 28.9077 12.7188 28.9077C13.0258 28.9077 13.3203 28.7857 13.5374 28.5686C13.7545 28.3515 13.8765 28.057 13.8765 27.75C13.8765 27.443 13.7545 27.1485 13.5374 26.9314L6.25994 19.6563L33.5313 19.6563C33.8379 19.6563 34.132 19.5344 34.3488 19.3176C34.5657 19.1008 34.6875 18.8067 34.6875 18.5Z" fill="#F5F3EC"/>
</svg>
