<svg width="35" height="34" viewBox="0 0 35 34" fill="none" xmlns="http://www.w3.org/2000/svg">
<path d="M4.21247 33.1423C4.21247 33.3006 4.27539 33.4525 4.38738 33.5645C4.49937 33.6765 4.65126 33.7394 4.80963 33.7394C4.96801 33.7394 5.1199 33.6765 5.23189 33.5645C5.34388 33.4525 5.40679 33.3006 5.40679 33.1423V29.0368H32.3536V33.1423C32.3536 33.3006 32.4165 33.4525 32.5285 33.5645C32.6405 33.6765 32.7924 33.7394 32.9508 33.7394C33.1091 33.7394 33.261 33.6765 33.373 33.5645C33.485 33.4525 33.5479 33.3006 33.5479 33.1423V28.4148C33.5479 28.0849 33.2643 27.8425 32.9348 27.8425H11.453V14.1824H20.9777C21.1375 14.1793 21.2897 14.1135 21.4014 13.9992C21.5131 13.8849 21.5754 13.7313 21.5749 13.5715C21.5749 8.04671 17.3613 3.4806 11.979 2.93188C11.2535 2.84545 10.5204 2.8437 9.79457 2.92666C4.41222 3.47545 0.198667 8.0473 0.198667 13.5724C0.19817 13.7321 0.260519 13.8856 0.372249 13.9998C0.48398 14.1139 0.636125 14.1795 0.795826 14.1824H10.2587V27.8425H5.10821C3.47297 25.3792 1.23563 22.1185 1.10725 21.9101C1.02591 21.7756 0.894846 21.6787 0.742495 21.6403C0.590143 21.602 0.428801 21.6252 0.293487 21.705C0.158172 21.7849 0.0598048 21.9149 0.0197347 22.0668C-0.0203354 22.2187 0.00112536 22.3803 0.079459 22.5165C0.219567 22.75 3.24231 27.2062 4.2127 28.6374L4.21247 33.1423ZM11.453 4.08298C11.677 4.09314 11.7954 4.10747 11.9573 4.12598C13.6144 4.35447 14.6471 5.17101 15.2242 6.66152C15.8534 8.28572 15.9102 10.5993 15.914 12.9879H11.453V4.08298ZM20.3622 12.9881H17.1083C17.1044 10.5248 17.0519 8.0529 16.346 6.23037C16.2673 6.02405 16.178 5.82187 16.0787 5.62463C16.6268 5.99001 17.1364 6.41018 17.5994 6.87866C19.2385 8.50739 20.2217 10.6817 20.3622 12.9881ZM4.17455 6.8747C4.63773 6.40741 5.1473 5.9885 5.69537 5.62448C5.59602 5.82288 5.50681 6.0262 5.42807 6.23365C4.72215 8.05641 4.66967 10.5248 4.66572 12.9881H1.4118C1.55209 10.6805 2.53529 8.50489 4.17455 6.8747ZM5.86004 12.9881C5.86384 10.5995 5.91229 8.28594 6.54177 6.66174C7.11885 5.17153 8.1273 4.36163 9.78457 4.13315C9.94714 4.11456 10.1094 4.09328 10.2587 4.08306V12.9881H5.86004Z" fill="#F5F3EC"/>
<path d="M28.5871 10.3371C29.3601 10.3371 30.1158 10.1079 30.7585 9.6784C31.4012 9.24894 31.9022 8.63853 32.198 7.92436C32.4938 7.21019 32.5712 6.42434 32.4204 5.66618C32.2696 4.90802 31.8974 4.21161 31.3508 3.66501C30.8042 3.11841 30.1078 2.74617 29.3496 2.59536C28.5915 2.44456 27.8056 2.52196 27.0914 2.81778C26.3773 3.11359 25.7669 3.61454 25.3374 4.25728C24.9079 4.90001 24.6787 5.65566 24.6787 6.42867C24.6799 7.46488 25.0921 8.45832 25.8248 9.19103C26.5575 9.92374 27.5509 10.3359 28.5871 10.3371ZM28.5871 3.71458C29.1239 3.71458 29.6487 3.87376 30.095 4.17199C30.5413 4.47022 30.8892 4.8941 31.0946 5.39004C31.3 5.88597 31.3538 6.43168 31.2491 6.95817C31.1443 7.48465 30.8858 7.96825 30.5063 8.34783C30.1267 8.7274 29.6431 8.98589 29.1166 9.09061C28.5901 9.19534 28.0444 9.14159 27.5485 8.93617C27.0525 8.73074 26.6287 8.38287 26.3304 7.93654C26.0322 7.49021 25.873 6.96547 25.873 6.42867C25.8738 5.7091 26.16 5.01922 26.6688 4.5104C27.1777 4.00158 27.8675 3.71537 28.5871 3.71458Z" fill="#F5F3EC"/>
<path d="M31.9626 3.65053C32.041 3.65062 32.1187 3.63522 32.1911 3.60521C32.2636 3.57519 32.3294 3.53116 32.3848 3.47564L33.1296 2.73083C33.1851 2.67537 33.2291 2.60954 33.2591 2.53708C33.2891 2.46463 33.3045 2.38697 33.3045 2.30855C33.3045 2.23013 33.289 2.15247 33.259 2.08002C33.229 2.00757 33.185 1.94175 33.1296 1.8863C33.0741 1.83085 33.0083 1.78687 32.9358 1.75686C32.8634 1.72686 32.7857 1.71142 32.7073 1.71143C32.6289 1.71143 32.5512 1.72689 32.4788 1.7569C32.4063 1.78692 32.3405 1.83091 32.285 1.88637L31.5401 2.63118C31.4566 2.7147 31.3997 2.8211 31.3767 2.93692C31.3537 3.05275 31.3655 3.17281 31.4107 3.28191C31.4559 3.39101 31.5324 3.48427 31.6306 3.54988C31.7288 3.61549 31.8442 3.65052 31.9623 3.65053H31.9626Z" fill="#F5F3EC"/>
<path d="M24.7896 9.38179L24.0448 10.1265C23.9349 10.2389 23.8737 10.3901 23.8745 10.5473C23.8754 10.7046 23.9382 10.8551 24.0493 10.9663C24.1605 11.0775 24.311 11.1403 24.4682 11.1413C24.6254 11.1422 24.7767 11.081 24.8891 10.9711L25.6341 10.2265C25.7461 10.1145 25.809 9.96259 25.809 9.80421C25.809 9.64583 25.7461 9.49393 25.6341 9.38194C25.5221 9.26995 25.3702 9.20703 25.2119 9.20703C25.0535 9.20703 24.9016 9.26995 24.7896 9.38194V9.38179Z" fill="#F5F3EC"/>
<path d="M28.5469 2.30354C28.7052 2.30354 28.8571 2.24063 28.9691 2.12864C29.0811 2.01665 29.144 1.86476 29.144 1.70638V0.597159C29.144 0.438783 29.0811 0.286893 28.9691 0.174904C28.8571 0.062915 28.7052 0 28.5469 0C28.3885 0 28.2366 0.062915 28.1246 0.174904C28.0126 0.286893 27.9497 0.438783 27.9497 0.597159V1.70638C27.9497 1.86476 28.0126 2.01665 28.1246 2.12864C28.2366 2.24063 28.3885 2.30354 28.5469 2.30354Z" fill="#F5F3EC"/>
<path d="M27.9497 11.2142V12.3238C27.9497 12.4822 28.0126 12.6341 28.1246 12.7461C28.2366 12.8581 28.3885 12.921 28.5469 12.921C28.7052 12.921 28.8571 12.8581 28.9691 12.7461C29.0811 12.6341 29.144 12.4822 29.144 12.3238V11.2146C29.144 11.0562 29.0811 10.9043 28.9691 10.7923C28.8571 10.6803 28.7052 10.6174 28.5469 10.6174C28.3885 10.6174 28.2366 10.6803 28.1246 10.7923C28.0126 10.9043 27.9497 11.0562 27.9497 11.2146V11.2142Z" fill="#F5F3EC"/>
<path d="M24.7894 3.47574C24.9016 3.58661 25.0532 3.64858 25.2109 3.64811C25.3687 3.64764 25.5198 3.58476 25.6314 3.47322C25.7429 3.36168 25.8058 3.21054 25.8063 3.05279C25.8068 2.89504 25.7448 2.74351 25.634 2.63129L24.8889 1.88648C24.7767 1.77561 24.6252 1.71364 24.4674 1.71411C24.3097 1.71459 24.1585 1.77746 24.047 1.889C23.9354 2.00054 23.8726 2.15168 23.8721 2.30943C23.8716 2.46718 23.9335 2.61871 24.0444 2.73094L24.7894 3.47574Z" fill="#F5F3EC"/>
<path d="M31.5401 9.3817C31.4847 9.43715 31.4407 9.50298 31.4107 9.57544C31.3807 9.64789 31.3652 9.72555 31.3652 9.80397C31.3652 9.88239 31.3807 9.96004 31.4107 10.0325C31.4407 10.105 31.4847 10.1708 31.5401 10.2262L32.285 10.971C32.3974 11.0809 32.5486 11.142 32.7058 11.1412C32.863 11.1403 33.0135 11.0774 33.1247 10.9663C33.2359 10.8551 33.2987 10.7046 33.2996 10.5474C33.3005 10.3901 33.2393 10.2389 33.1294 10.1265L32.3847 9.3817C32.3292 9.32625 32.2634 9.28226 32.1909 9.25225C32.1185 9.22223 32.0408 9.20679 31.9624 9.20679C31.884 9.20679 31.8063 9.22223 31.7339 9.25225C31.6614 9.28226 31.5956 9.32625 31.5401 9.3817Z" fill="#F5F3EC"/>
<path d="M22.835 7.09129H23.7858C23.9442 7.09129 24.096 7.02838 24.208 6.91639C24.32 6.8044 24.3829 6.65251 24.3829 6.49413C24.3829 6.33576 24.32 6.18387 24.208 6.07188C24.096 5.95989 23.9442 5.89697 23.7858 5.89697H22.835C22.6766 5.89697 22.5247 5.95989 22.4127 6.07188C22.3007 6.18387 22.2378 6.33576 22.2378 6.49413C22.2378 6.65251 22.3007 6.8044 22.4127 6.91639C22.5247 7.02838 22.6766 7.09129 22.835 7.09129Z" fill="#F5F3EC"/>
<path d="M34.4027 5.89697H33.2934C33.1351 5.89697 32.9832 5.95989 32.8712 6.07188C32.7592 6.18387 32.6963 6.33576 32.6963 6.49413C32.6963 6.65251 32.7592 6.8044 32.8712 6.91639C32.9832 7.02838 33.1351 7.09129 33.2934 7.09129H34.4027C34.5611 7.09129 34.713 7.02838 34.825 6.91639C34.937 6.8044 34.9999 6.65251 34.9999 6.49413C34.9999 6.33576 34.937 6.18387 34.825 6.07188C34.713 5.95989 34.5611 5.89697 34.4027 5.89697Z" fill="#F5F3EC"/>
</svg>
