<svg width="35" height="35" viewBox="0 0 35 35" fill="none" xmlns="http://www.w3.org/2000/svg">
<g clip-path="url(#clip0_230_6620)">
<path d="M0.301537 18.2764C0.585912 18.902 0.975287 19.3132 1.49154 19.5407L2.57216 20.0087L1.80216 22.5022C1.67091 22.9352 1.62279 23.3464 1.66216 23.7226C1.81529 25.2012 3.04029 26.4873 5.11404 27.3534C5.16654 27.3753 5.22779 27.3884 5.28029 27.3884C5.45091 27.3884 5.60841 27.2878 5.68279 27.126L7.84841 22.1391C7.90529 22.1391 7.95779 22.1478 8.01466 22.1478C8.89404 22.1478 9.74716 21.7016 10.2328 20.9186L12.114 17.874C12.3065 17.9352 12.5034 17.9702 12.7003 17.9702C13.1772 17.9702 13.6497 17.7865 14.0128 17.4278L17.434 14.0288C17.9459 13.5214 18.1034 12.7865 17.889 12.1303L20.9253 10.2799C21.7609 9.7725 22.2159 8.83637 22.159 7.89586L27.1422 5.77863C27.3609 5.68677 27.4659 5.43305 27.3784 5.20995C26.534 3.12771 25.2565 1.88974 23.7822 1.72351C23.4059 1.67977 22.9947 1.72351 22.5615 1.85474L20.0809 2.60278L19.6215 1.52229C19.4028 1.00173 18.9915 0.608025 18.3703 0.319311C17.3247 -0.170628 16.0603 -0.0918873 14.9972 0.524911L11.2959 2.66402C11.0815 2.41905 10.8059 2.2222 10.434 2.06034C8.97279 1.42167 7.20091 1.776 6.03279 2.93523L3.04029 5.90986C1.94654 6.99473 1.56154 8.56953 2.02529 10.0262C2.19591 10.5555 2.41466 10.9142 2.72091 11.1811L0.533412 14.8994C-0.0922134 15.9624 -0.175338 17.2222 0.301537 18.2764ZM5.05279 26.3692C4.03341 25.8836 2.66841 24.9912 2.52841 23.6308C2.50216 23.3727 2.53716 23.0752 2.63779 22.7603L3.38154 20.3587L6.98216 21.9291L5.05279 26.3692ZM22.8109 2.69026C23.1303 2.59403 23.4234 2.56341 23.6815 2.58965C25.0378 2.74276 25.9172 4.11196 26.394 5.13996L21.9578 7.02535L20.4222 3.40767L22.8109 2.69026ZM15.4347 1.28169C16.2528 0.80925 17.2109 0.743633 18.0028 1.11109C18.4228 1.30794 18.6809 1.54853 18.8165 1.86349L21.1615 7.37968C21.494 8.16271 21.2009 9.09009 20.4747 9.53191L17.4647 11.3648L11.8122 3.37705L15.4347 1.28169ZM3.65716 6.53103L6.64966 3.55641C7.26654 2.94398 8.08904 2.62027 8.90716 2.62027C9.30966 2.62027 9.71216 2.69901 10.0884 2.86087C10.3859 2.9921 10.574 3.12771 10.7053 3.31581L16.9309 12.1303C17.2109 12.5284 17.1672 13.0665 16.8215 13.412L13.4003 16.811C13.0547 17.1522 12.5165 17.1959 12.1228 16.9116L3.37279 10.5949C3.14529 10.433 2.99216 10.1837 2.85654 9.75938C2.48904 8.62202 2.79529 7.38405 3.65279 6.53103H3.65716ZM1.29029 15.3412L3.42529 11.706L11.3572 17.4278L9.48466 20.4505C9.03841 21.1723 8.11091 21.461 7.33216 21.1242L1.84154 18.7314C1.52654 18.5958 1.29029 18.3333 1.09779 17.909C0.739037 17.1172 0.809037 16.1548 1.28591 15.3368L1.29029 15.3412Z" fill="#F5F3EC"/>
<path d="M34.497 19.5145C33.6964 17.9265 32.1126 16.9379 30.3583 16.9379H30.1395C28.9364 16.9379 27.7945 16.3386 27.0814 15.3456L26.9501 15.1619C25.9045 13.7008 24.172 12.9746 22.4308 13.2634C20.742 13.5477 19.447 14.6938 18.9614 16.3299C18.5851 17.5984 17.6051 18.5783 16.3408 18.9545C14.7045 19.4401 13.5626 20.7393 13.2783 22.4235C12.9895 24.1689 13.7158 25.9012 15.177 26.9466L15.3564 27.0779C16.3495 27.7865 16.9489 28.9326 16.9489 30.1356V30.3587C16.9533 32.1173 17.942 33.7052 19.5345 34.5013C20.2083 34.8382 20.9126 35.0044 21.6083 35.0044C22.5314 35.0044 23.4414 34.7113 24.2245 34.1295L24.3995 33.9983C25.3445 33.294 26.5958 33.119 27.7376 33.5215L27.9476 33.5958C29.597 34.1776 31.3733 33.7883 32.5808 32.5766C33.7926 31.3648 34.182 29.5844 33.6001 27.9353L33.5258 27.7253C33.1233 26.5836 33.2983 25.3325 34.0026 24.3832L34.1339 24.2082C35.1489 22.8347 35.2845 21.0761 34.5014 19.5145H34.497ZM33.4251 23.6877L33.2939 23.8627C32.4189 25.0438 32.2001 26.5967 32.6989 28.014L32.7733 28.224C33.2501 29.5757 32.9439 30.9711 31.9595 31.9554C30.9751 32.9396 29.5839 33.2459 28.232 32.769L28.022 32.6947C26.6045 32.196 25.0558 32.4235 23.8745 33.294L23.6995 33.4252C22.597 34.2432 21.1883 34.3526 19.9239 33.7183C18.6333 33.0709 17.8283 31.7804 17.8239 30.3543V30.1312C17.8239 28.6483 17.0889 27.2397 15.8639 26.3648L15.6845 26.2336C14.4945 25.385 13.9039 23.9808 14.1401 22.5678C14.3676 21.2161 15.282 20.1794 16.5858 19.79C18.1345 19.3307 19.3376 18.1278 19.797 16.5748C20.1864 15.2669 21.2233 14.3482 22.5708 14.1208C22.7764 14.0858 22.982 14.0683 23.1876 14.0683C24.382 14.0683 25.5108 14.6457 26.237 15.6606L26.3683 15.8443C27.2433 17.0691 28.652 17.7997 30.1351 17.804H30.3539C31.7758 17.804 33.0664 18.6089 33.7139 19.8994C34.3483 21.1636 34.2433 22.5766 33.4251 23.6789V23.6877Z" fill="#F5F3EC"/>
<path d="M24.7186 19.6719C23.3711 19.6719 22.1067 20.1968 21.1574 21.1504C19.193 23.1189 19.193 26.3167 21.1574 28.2808C22.1111 29.2344 23.3755 29.7594 24.7186 29.7594C26.0617 29.7594 27.3305 29.2344 28.2799 28.2808C30.2442 26.3123 30.2442 23.1146 28.2799 21.1504C27.3261 20.1968 26.0617 19.6719 24.7186 19.6762V19.6719ZM27.663 27.6596C26.8755 28.447 25.8299 28.8801 24.7186 28.8801C23.6074 28.8801 22.5617 28.447 21.7742 27.6596C20.1511 26.0367 20.1511 23.3902 21.7742 21.7672C22.5617 20.9798 23.6074 20.5468 24.7186 20.5468C25.8299 20.5468 26.8755 20.9798 27.663 21.7672C29.2861 23.3902 29.2861 26.0367 27.663 27.6596Z" fill="#F5F3EC"/>
<path d="M23.8524 23.2239C23.6818 23.0533 23.4062 23.0533 23.2355 23.2239C22.413 24.0419 22.413 25.3761 23.2355 26.1985C23.323 26.286 23.4324 26.3254 23.5462 26.3254C23.6599 26.3254 23.7693 26.2816 23.8568 26.1985C24.0274 26.0279 24.0274 25.7523 23.8568 25.5817C23.3799 25.1049 23.3799 24.3219 23.8568 23.8451C24.0274 23.6745 24.0274 23.3989 23.8568 23.2283L23.8524 23.2239Z" fill="#F5F3EC"/>
</g>
<defs>
<clipPath id="clip0_230_6620">
<rect width="35" height="35" fill="white"/>
</clipPath>
</defs>
</svg>
