<svg width="32" height="25" viewBox="0 0 32 25" fill="none" xmlns="http://www.w3.org/2000/svg">
<path d="M3.23719 8.85715C3.30766 8.90782 3.389 8.93228 3.46957 8.93228C3.59304 8.93228 3.71457 8.87501 3.79242 8.76746L8.18072 2.68744C8.30924 2.50922 8.26906 2.26072 8.09103 2.1322C7.91301 2.00407 7.66451 2.04426 7.5358 2.2219L3.1475 8.30192C3.01898 8.48014 3.05916 8.72863 3.23719 8.85715Z" fill="#141414"/>
<path d="M2.54768 6.86429C2.67116 6.86429 2.79269 6.80702 2.87054 6.69927L5.48519 3.07588C5.61371 2.89785 5.57352 2.64935 5.3953 2.52083C5.21747 2.3929 4.96898 2.4327 4.84026 2.61072L2.22561 6.23412C2.09709 6.41214 2.13728 6.66064 2.3155 6.78916C2.38577 6.83983 2.46712 6.86429 2.54768 6.86429Z" fill="#141414"/>
<path d="M32 16.5087C32 16.5033 31.9984 16.4986 31.9984 16.4932V1.4704C31.9984 0.659682 31.3993 0 30.6628 0H1.33606C0.599305 0 0 0.659682 0 1.4704V18.2249C0 19.0356 0.599305 19.6953 1.33606 19.6953H21.1919V22.8361C21.1919 23.9539 22.1017 24.8637 23.2195 24.8637H26.4399C27.5577 24.8637 28.4675 23.9539 28.4675 22.8361V19.6953H30.6628C31.3993 19.6953 31.9984 19.0356 31.9984 18.2249V16.5243C31.9984 16.5188 32 16.5142 32 16.5087ZM1.33606 1.19279H30.6628C30.7063 1.19279 30.8057 1.29762 30.8057 1.4704V15.9123H28.4675V12.6982C28.4675 11.5798 27.5577 10.6698 26.4399 10.6698H23.2195C22.1017 10.6698 21.1919 11.5798 21.1919 12.6982V15.9116H1.19279V1.4704C1.19279 1.29762 1.29238 1.19279 1.33606 1.19279ZM1.33606 18.5025C1.29238 18.5025 1.19279 18.3977 1.19279 18.2249V17.1044H21.1919V18.5025H1.33606ZM27.2747 22.8361C27.2747 23.2966 26.9004 23.6709 26.4399 23.6709H23.2195C22.759 23.6709 22.3847 23.2966 22.3847 22.8361V12.6982C22.3847 12.2375 22.759 11.8626 23.2195 11.8626H26.4399C26.9004 11.8626 27.2747 12.2375 27.2747 12.6982V22.8361ZM30.6628 18.5025H28.4675V17.1051H30.8057V18.2249C30.8057 18.3977 30.7063 18.5025 30.6628 18.5025Z" fill="#141414"/>
<path d="M24.8303 20.9375C25.0501 20.9375 25.2279 20.7596 25.2279 20.5399V19.5956H26.1714C26.3912 19.5956 26.569 19.4177 26.569 19.198C26.569 18.9782 26.3912 18.8004 26.1714 18.8004H25.2279V17.8561C25.2279 17.6363 25.0501 17.4585 24.8303 17.4585C24.6105 17.4585 24.4327 17.6363 24.4327 17.8561V18.8004H23.4884C23.2687 18.8004 23.0908 18.9782 23.0908 19.198C23.0908 19.4177 23.2687 19.5956 23.4884 19.5956H24.4327V20.5399C24.4327 20.7596 24.6105 20.9375 24.8303 20.9375Z" fill="#141414"/>
<path d="M23.4761 22.006H23.2975C23.0777 22.006 22.8999 22.1838 22.8999 22.4036C22.8999 22.6233 23.0777 22.8012 23.2975 22.8012H23.4761C23.6959 22.8012 23.8737 22.6233 23.8737 22.4036C23.8737 22.1838 23.6959 22.006 23.4761 22.006Z" fill="#141414"/>
<path d="M24.9195 22.006H24.7409C24.5211 22.006 24.3433 22.1838 24.3433 22.4036C24.3433 22.6233 24.5211 22.8012 24.7409 22.8012H24.9195C25.1392 22.8012 25.3171 22.6233 25.3171 22.4036C25.3171 22.1838 25.1392 22.006 24.9195 22.006Z" fill="#141414"/>
<path d="M26.3623 22.006H26.1837C25.964 22.006 25.7861 22.1838 25.7861 22.4036C25.7861 22.6233 25.964 22.8012 26.1837 22.8012H26.3623C26.5821 22.8012 26.7599 22.6233 26.7599 22.4036C26.7599 22.1838 26.5821 22.006 26.3623 22.006Z" fill="#141414"/>
<path d="M23.2975 16.5468H23.4761C23.6959 16.5468 23.8737 16.3689 23.8737 16.1492C23.8737 15.9294 23.6959 15.7516 23.4761 15.7516H23.2975C23.0777 15.7516 22.8999 15.9294 22.8999 16.1492C22.8999 16.3689 23.0777 16.5468 23.2975 16.5468Z" fill="#141414"/>
<path d="M24.7409 16.5468H24.9195C25.1392 16.5468 25.3171 16.3689 25.3171 16.1492C25.3171 15.9294 25.1392 15.7516 24.9195 15.7516H24.7409C24.5211 15.7516 24.3433 15.9294 24.3433 16.1492C24.3433 16.3689 24.5211 16.5468 24.7409 16.5468Z" fill="#141414"/>
<path d="M26.3623 15.7516H26.1837C25.964 15.7516 25.7861 15.9294 25.7861 16.1492C25.7861 16.3689 25.964 16.5468 26.1837 16.5468H26.3623C26.5821 16.5468 26.7599 16.3689 26.7599 16.1492C26.7599 15.9294 26.5821 15.7516 26.3623 15.7516Z" fill="#141414"/>
<path d="M23.2975 15.2064H23.4761C23.6959 15.2064 23.8737 15.0286 23.8737 14.8088C23.8737 14.5891 23.6959 14.4113 23.4761 14.4113H23.2975C23.0777 14.4113 22.8999 14.5891 22.8999 14.8088C22.8999 15.0286 23.0777 15.2064 23.2975 15.2064Z" fill="#141414"/>
<path d="M24.7409 15.2064H24.9195C25.1392 15.2064 25.3171 15.0286 25.3171 14.8088C25.3171 14.5891 25.1392 14.4113 24.9195 14.4113H24.7409C24.5211 14.4113 24.3433 14.5891 24.3433 14.8088C24.3433 15.0286 24.5211 15.2064 24.7409 15.2064Z" fill="#141414"/>
<path d="M26.3623 14.4113H26.1837C25.964 14.4113 25.7861 14.5891 25.7861 14.8088C25.7861 15.0286 25.964 15.2064 26.1837 15.2064H26.3623C26.5821 15.2064 26.7599 15.0286 26.7599 14.8088C26.7599 14.5891 26.5821 14.4113 26.3623 14.4113Z" fill="#141414"/>
<path d="M23.2975 13.9127H23.4761C23.6959 13.9127 23.8737 13.7349 23.8737 13.5151C23.8737 13.2954 23.6959 13.1176 23.4761 13.1176H23.2975C23.0777 13.1176 22.8999 13.2954 22.8999 13.5151C22.8999 13.7349 23.0777 13.9127 23.2975 13.9127Z" fill="#141414"/>
<path d="M24.7409 13.9127H24.9195C25.1392 13.9127 25.3171 13.7349 25.3171 13.5151C25.3171 13.2954 25.1392 13.1176 24.9195 13.1176H24.7409C24.5211 13.1176 24.3433 13.2954 24.3433 13.5151C24.3433 13.7349 24.5211 13.9127 24.7409 13.9127Z" fill="#141414"/>
<path d="M26.3623 13.1176H26.1837C25.964 13.1176 25.7861 13.2954 25.7861 13.5151C25.7861 13.7349 25.964 13.9127 26.1837 13.9127H26.3623C26.5821 13.9127 26.7599 13.7349 26.7599 13.5151C26.7599 13.2954 26.5821 13.1176 26.3623 13.1176Z" fill="#141414"/>
</svg>
