<svg width="100" height="100" viewBox="0 0 100 100" fill="none" xmlns="http://www.w3.org/2000/svg">
<path d="M6.25 18.75C6.25 17.0924 6.90848 15.5027 8.08058 14.3306C9.25268 13.1585 10.8424 12.5 12.5 12.5H87.5C89.1576 12.5 90.7473 13.1585 91.9194 14.3306C93.0915 15.5027 93.75 17.0924 93.75 18.75H6.25ZM50 68.75C53.3152 68.75 56.4946 67.433 58.8388 65.0888C61.183 62.7446 62.5 59.5652 62.5 56.25C62.5 52.9348 61.183 49.7554 58.8388 47.4112C56.4946 45.067 53.3152 43.75 50 43.75C46.6848 43.75 43.5054 45.067 41.1612 47.4112C38.817 49.7554 37.5 52.9348 37.5 56.25C37.5 59.5652 38.817 62.7446 41.1612 65.0888C43.5054 67.433 46.6848 68.75 50 68.75Z" fill="black"/>
<path d="M0 31.25C0 29.5924 0.65848 28.0027 1.83058 26.8306C3.00269 25.6585 4.5924 25 6.25 25H93.75C95.4076 25 96.9973 25.6585 98.1694 26.8306C99.3415 28.0027 100 29.5924 100 31.25V81.25C100 82.9076 99.3415 84.4973 98.1694 85.6694C96.9973 86.8415 95.4076 87.5 93.75 87.5H6.25C4.5924 87.5 3.00269 86.8415 1.83058 85.6694C0.65848 84.4973 0 82.9076 0 81.25V31.25ZM18.75 31.25C18.75 34.5652 17.433 37.7446 15.0888 40.0888C12.7446 42.433 9.56521 43.75 6.25 43.75V68.75C9.56521 68.75 12.7446 70.067 15.0888 72.4112C17.433 74.7554 18.75 77.9348 18.75 81.25H81.25C81.25 77.9348 82.567 74.7554 84.9112 72.4112C87.2554 70.067 90.4348 68.75 93.75 68.75V43.75C90.4348 43.75 87.2554 42.433 84.9112 40.0888C82.567 37.7446 81.25 34.5652 81.25 31.25H18.75Z" fill="black"/>
</svg>
