<svg width="28" height="22" viewBox="0 0 28 22" fill="none" xmlns="http://www.w3.org/2000/svg">
<path d="M23.2359 0.69796C23.7113 0.245335 24.344 -0.00489417 25.0004 7.25468e-05C25.6568 0.00503927 26.2856 0.264814 26.7542 0.724581C27.2227 1.18435 27.4943 1.80815 27.5116 2.46435C27.529 3.12055 27.2907 3.75783 26.8471 4.24171L13.3809 21.083C13.1493 21.3324 12.8699 21.5325 12.5592 21.6714C12.2485 21.8104 11.913 21.8852 11.5727 21.8915C11.2325 21.8978 10.8944 21.8355 10.5788 21.7081C10.2632 21.5808 9.97652 21.3911 9.73589 21.1505L0.805641 12.2202C0.556948 11.9885 0.357478 11.709 0.21913 11.3985C0.0807824 11.088 0.00639058 10.7528 0.000393929 10.413C-0.00560272 10.0731 0.0569188 9.7355 0.184227 9.42032C0.311536 9.10513 0.501024 8.81882 0.741387 8.57846C0.98175 8.33809 1.26806 8.1486 1.58325 8.0213C1.89843 7.89399 2.23603 7.83147 2.57591 7.83746C2.91578 7.84346 3.25096 7.91785 3.56146 8.0562C3.87196 8.19455 4.15141 8.39402 4.38314 8.64271L11.4504 15.7066L23.1718 0.772211L23.2359 0.69796Z" fill="#141414"/>
</svg>
