<svg width="33" height="21" viewBox="0 0 33 21" fill="none" xmlns="http://www.w3.org/2000/svg">
<path fill-rule="evenodd" clip-rule="evenodd" d="M1.24111e-07 10.4077C1.27768e-07 10.1011 0.121819 9.80697 0.338658 9.59013C0.555497 9.37329 0.849594 9.25147 1.15625 9.25147L28.4276 9.25147L21.1501 1.97635C20.933 1.75923 20.811 1.46476 20.811 1.15772C20.811 0.850676 20.933 0.556208 21.1501 0.339094C21.3672 0.121983 21.6617 9.79506e-06 21.9688 9.79872e-06C22.2758 9.80238e-06 22.5703 0.121983 22.7874 0.339094L32.0374 9.58909C32.1451 9.6965 32.2305 9.8241 32.2888 9.96457C32.3471 10.105 32.3771 10.2556 32.3771 10.4077C32.3771 10.5598 32.3471 10.7104 32.2888 10.8509C32.2305 10.9913 32.1451 11.1189 32.0374 11.2263L22.7874 20.4763C22.5703 20.6935 22.2758 20.8154 21.9688 20.8154C21.6617 20.8154 21.3672 20.6935 21.1501 20.4763C20.933 20.2592 20.811 19.9648 20.811 19.6577C20.811 19.3507 20.933 19.0562 21.1501 18.8391L28.4276 11.564L1.15625 11.564C0.849594 11.564 0.555497 11.4421 0.338658 11.2253C0.121819 11.0085 1.20454e-07 10.7144 1.24111e-07 10.4077Z" fill="#F5F3EC"/>
</svg>
