<svg width="33" height="21" viewBox="0 0 33 21" fill="none" xmlns="http://www.w3.org/2000/svg">
<path fill-rule="evenodd" clip-rule="evenodd" d="M32.377 10.4077C32.377 10.1011 32.2551 9.80697 32.0383 9.59013C31.8215 9.37329 31.5274 9.25147 31.2207 9.25147L3.94939 9.25147L11.2268 1.97635C11.4439 1.75923 11.5659 1.46476 11.5659 1.15772C11.5659 0.850676 11.4439 0.556208 11.2268 0.339094C11.0097 0.121983 10.7152 9.79506e-06 10.4082 9.79872e-06C10.1012 9.80238e-06 9.80669 0.121983 9.58958 0.339094L0.339577 9.58909C0.231899 9.6965 0.146469 9.8241 0.0881804 9.96457C0.0298918 10.105 -0.000114567 10.2556 -0.000114565 10.4077C-0.000114563 10.5598 0.0298918 10.7104 0.0881804 10.8509C0.146469 10.9913 0.231899 11.1189 0.339577 11.2263L9.58958 20.4763C9.80669 20.6935 10.1012 20.8154 10.4082 20.8154C10.7152 20.8154 11.0097 20.6935 11.2268 20.4763C11.4439 20.2592 11.5659 19.9648 11.5659 19.6577C11.5659 19.3507 11.4439 19.0562 11.2268 18.8391L3.94939 11.564L31.2207 11.564C31.5274 11.564 31.8215 11.4421 32.0383 11.2253C32.2551 11.0085 32.377 10.7144 32.377 10.4077Z" fill="#F5F3EC"/>
</svg>
