<svg width="35" height="35" viewBox="0 0 35 35" fill="none" xmlns="http://www.w3.org/2000/svg">
<path d="M12.7175 26.8264C13.0502 26.8606 13.3715 26.7557 13.6153 26.5279C13.8614 26.3068 14.0004 25.9901 14.0004 25.6642V20.4142H18.462C21.5541 20.4142 24.195 18.0991 24.4756 15.146C24.6328 13.4826 24.1019 11.8922 22.9831 10.6594C21.8757 9.44717 20.3057 8.74536 18.6719 8.74536H14.5885C12.9776 8.74536 11.6719 10.051 11.6719 11.662V25.5617C11.6719 26.2157 12.1322 26.7694 12.7223 26.8218L12.7175 26.8264ZM14.0004 11.6667C14.0004 11.3454 14.2624 11.0834 14.5837 11.0834H18.6671C20.7497 11.0834 22.4132 12.9086 22.1374 15.0437C21.9096 16.8051 20.3236 18.0834 18.544 18.0834H14.0003L14.0004 11.6667Z" fill="#F5F3EC"/>
<path d="M5.83333 35H29.1667C32.3818 35 35 32.3818 35 29.1667V5.83333C35 2.61817 32.3818 0 29.1667 0H5.83333C2.61817 0 0 2.61817 0 5.83333V29.1667C0 32.3818 2.61817 35 5.83333 35ZM2.33333 5.83333C2.33333 3.90332 3.90332 2.33333 5.83333 2.33333H29.1667C31.0967 2.33333 32.6667 3.90332 32.6667 5.83333V29.1667C32.6667 31.0967 31.0967 32.6667 29.1667 32.6667H5.83333C3.90332 32.6667 2.33333 31.0967 2.33333 29.1667V5.83333Z" fill="#F5F3EC"/>
</svg>
