<svg width="100" height="100" viewBox="0 0 100 100" fill="none" xmlns="http://www.w3.org/2000/svg">
<g clip-path="url(#clip0_652_1243)">
<path d="M62.9196 5.4375C61.2373 3.71588 59.2278 2.34788 57.0093 1.41389C54.7908 0.479908 52.4079 -0.0012207 50.0008 -0.0012207C47.5937 -0.0012207 45.2109 0.479908 42.9924 1.41389C40.7739 2.34788 38.7644 3.71588 37.0821 5.4375L33.1946 9.425L27.6321 9.35625C25.2243 9.32775 22.8351 9.78099 20.605 10.6893C18.3749 11.5976 16.3489 12.9427 14.6462 14.6454C12.9435 16.3481 11.5984 18.374 10.6901 20.6041C9.78182 22.8342 9.32858 25.2234 9.35708 27.6313L9.41958 33.1937L5.44458 37.0813C3.72296 38.7636 2.35496 40.773 1.42097 42.9915C0.486989 45.2101 0.00585938 47.5929 0.00585938 50C0.00585938 52.4071 0.486989 54.7899 1.42097 57.0085C2.35496 59.227 3.72296 61.2364 5.44458 62.9188L9.42583 66.8063L9.35708 72.3688C9.32858 74.7766 9.78182 77.1658 10.6901 79.3959C11.5984 81.626 12.9435 83.6519 14.6462 85.3546C16.3489 87.0573 18.3749 88.4024 20.605 89.3107C22.8351 90.219 25.2243 90.6722 27.6321 90.6438L33.1946 90.5813L37.0821 94.5563C38.7644 96.2779 40.7739 97.6459 42.9924 98.5799C45.2109 99.5138 47.5937 99.995 50.0008 99.995C52.4079 99.995 54.7908 99.5138 57.0093 98.5799C59.2278 97.6459 61.2373 96.2779 62.9196 94.5563L66.8071 90.575L72.3696 90.6438C74.7774 90.6722 77.1666 90.219 79.3967 89.3107C81.6268 88.4024 83.6528 87.0573 85.3555 85.3546C87.0582 83.6519 88.4032 81.626 89.3115 79.3959C90.2198 77.1658 90.6731 74.7766 90.6446 72.3688L90.5821 66.8063L94.5571 62.9188C96.2787 61.2364 97.6467 59.227 98.5807 57.0085C99.5147 54.7899 99.9958 52.4071 99.9958 50C99.9958 47.5929 99.5147 45.2101 98.5807 42.9915C97.6467 40.773 96.2787 38.7636 94.5571 37.0813L90.5758 33.1937L90.6446 27.6313C90.6731 25.2234 90.2198 22.8342 89.3115 20.6041C88.4032 18.374 87.0582 16.3481 85.3555 14.6454C83.6528 12.9427 81.6268 11.5976 79.3967 10.6893C77.1666 9.78099 74.7774 9.32775 72.3696 9.35625L66.8071 9.41875L62.9196 5.4375ZM64.7133 42.8375L45.9633 61.5875C45.673 61.8785 45.3282 62.1094 44.9485 62.267C44.5689 62.4245 44.1619 62.5056 43.7508 62.5056C43.3398 62.5056 42.9328 62.4245 42.5531 62.267C42.1735 62.1094 41.8286 61.8785 41.5383 61.5875L32.1633 52.2125C31.8728 51.922 31.6423 51.577 31.4851 51.1974C31.3278 50.8178 31.2469 50.4109 31.2469 50C31.2469 49.5891 31.3278 49.1822 31.4851 48.8026C31.6423 48.423 31.8728 48.078 32.1633 47.7875C32.4539 47.497 32.7988 47.2665 33.1784 47.1092C33.5581 46.952 33.9649 46.8711 34.3758 46.8711C34.7867 46.8711 35.1936 46.952 35.5732 47.1092C35.9528 47.2665 36.2978 47.497 36.5883 47.7875L43.7508 54.9563L60.2883 38.4125C60.8751 37.8257 61.671 37.4961 62.5008 37.4961C63.3307 37.4961 64.1265 37.8257 64.7133 38.4125C65.3001 38.9993 65.6298 39.7952 65.6298 40.625C65.6298 41.4548 65.3001 42.2507 64.7133 42.8375Z" fill="#C2BFAF"/>
</g>
<defs>
<clipPath id="clip0_652_1243">
<rect width="100" height="100" fill="white"/>
</clipPath>
</defs>
</svg>
