<svg width="17" height="17" viewBox="0 0 17 17" fill="none" xmlns="http://www.w3.org/2000/svg">
<path d="M7.4375 14.875C7.4375 14.875 6.375 14.875 6.375 13.8125C6.375 12.75 7.4375 9.5625 11.6875 9.5625C15.9375 9.5625 17 12.75 17 13.8125C17 14.875 15.9375 14.875 15.9375 14.875H7.4375ZM11.6875 8.5C12.5329 8.5 13.3436 8.16418 13.9414 7.5664C14.5392 6.96863 14.875 6.15788 14.875 5.3125C14.875 4.46712 14.5392 3.65637 13.9414 3.0586C13.3436 2.46083 12.5329 2.125 11.6875 2.125C10.8421 2.125 10.0314 2.46083 9.4336 3.0586C8.83582 3.65637 8.5 4.46712 8.5 5.3125C8.5 6.15788 8.83582 6.96863 9.4336 7.5664C10.0314 8.16418 10.8421 8.5 11.6875 8.5ZM5.542 14.875C5.38456 14.5433 5.30601 14.1796 5.3125 13.8125C5.3125 12.3728 6.035 10.8906 7.3695 9.86C6.7035 9.65434 6.00947 9.55396 5.3125 9.5625C1.0625 9.5625 0 12.75 0 13.8125C0 14.875 1.0625 14.875 1.0625 14.875H5.542ZM4.78125 8.5C5.48573 8.5 6.16136 8.22015 6.6595 7.722C7.15765 7.22386 7.4375 6.54823 7.4375 5.84375C7.4375 5.13927 7.15765 4.46364 6.6595 3.9655C6.16136 3.46735 5.48573 3.1875 4.78125 3.1875C4.07677 3.1875 3.40114 3.46735 2.903 3.9655C2.40485 4.46364 2.125 5.13927 2.125 5.84375C2.125 6.54823 2.40485 7.22386 2.903 7.722C3.40114 8.22015 4.07677 8.5 4.78125 8.5Z" fill="#F5F3EC"/>
</svg>
