<svg width="18" height="35" viewBox="0 0 18 35" fill="none" xmlns="http://www.w3.org/2000/svg">
<path d="M14.3735 0.00621831L3.2039 0C1.46716 0 0 1.46752 0 3.20426V30.5089C0 32.028 1.12296 33.3412 2.56744 33.6455C2.77337 33.6894 2.98662 33.7124 3.2039 33.7124H4.51267H12.5467H14.3786C14.4192 33.7124 14.4583 33.7077 14.4978 33.7059C16.1815 33.64 17.5825 32.2047 17.5825 30.5089V3.2039C17.5821 1.47045 16.1128 0.00621831 14.3735 0.00621831ZM3.20353 1.47886L14.3727 1.48508C15.2949 1.48508 16.1033 2.28834 16.1033 3.20426V10.0276H1.47886V3.2039C1.47886 2.28505 2.28468 1.47886 3.20353 1.47886ZM14.3786 32.2336H3.2039C2.28468 32.2336 1.47886 31.4278 1.47886 30.5089V11.013H16.1033V30.5089C16.1033 31.4278 15.2967 32.2336 14.3786 32.2336Z" fill="#141414"/>
<path d="M3.69589 8.79458H3.53421C3.26243 8.79458 3.04004 8.57255 3.04004 8.30041V3.04154C3.04004 2.76976 3.26207 2.54773 3.53421 2.54773H3.69589C3.96693 2.54773 4.1897 2.76939 4.1897 3.04154V8.30041C4.1897 8.57219 3.9673 8.79458 3.69589 8.79458Z" fill="#141414"/>
<path d="M3.69589 29.6888H3.53421C3.26243 29.6888 3.04004 29.4665 3.04004 29.1954V12.741C3.04004 12.4696 3.26207 12.2472 3.53421 12.2472H3.69589C3.96693 12.2472 4.1897 12.4692 4.1897 12.741V29.1958C4.1897 29.4665 3.9673 29.6888 3.69589 29.6888Z" fill="#141414"/>
<path d="M4.27802 35C4.81938 35 5.25906 34.5628 5.26308 34.0215H3.29297C3.29772 34.5625 3.7363 35 4.27802 35Z" fill="#141414"/>
<path d="M13.3035 35C13.8449 35 14.2846 34.5628 14.2886 34.0215H12.3188C12.3225 34.5625 12.7618 35 13.3035 35Z" fill="#141414"/>
</svg>
