<svg width="31" height="20" viewBox="0 0 31 20" fill="none" xmlns="http://www.w3.org/2000/svg">
<path d="M12.7152 14.1753C12.964 14.1753 13.2032 14.1179 13.428 14.0055L18.9967 11.2212C19.5397 10.9509 19.877 10.4056 19.877 9.798C19.877 9.19042 19.5397 8.64506 18.9967 8.37239L13.428 5.5881C13.2032 5.47806 12.964 5.42065 12.7152 5.42065C11.8373 5.42065 11.1221 6.13588 11.1221 7.01374V12.5823C11.1221 13.4602 11.8373 14.1753 12.7152 14.1753ZM12.9592 7.41072L17.7361 9.7979L12.9592 12.1851V7.41072Z" fill="#141414"/>
<path d="M4.59508 19.5964C4.8295 19.5964 5.06631 19.5055 5.24571 19.3285C5.60452 18.9697 5.60452 18.3884 5.24571 18.0296C3.04746 15.8314 1.83708 12.9107 1.83708 9.80085C1.83708 6.69367 3.04746 3.77062 5.24571 1.5721C5.60452 1.2133 5.60452 0.632026 5.24571 0.27325C4.8869 -0.0855496 4.30562 -0.0855496 3.94684 0.27325C1.40175 2.8183 0 6.20061 0 9.79834C0 13.3961 1.40175 16.7803 3.94684 19.3259C4.12384 19.5053 4.36066 19.5964 4.59508 19.5964Z" fill="#141414"/>
<path d="M7.40771 15.8618C7.58711 16.0412 7.82153 16.1297 8.05834 16.1297C8.29275 16.1297 8.52957 16.0388 8.70897 15.8618C9.06777 15.503 9.06777 14.9217 8.70897 14.563C7.43643 13.2904 6.73552 11.5993 6.73552 9.79815C6.73552 7.99937 7.43636 6.30586 8.70897 5.03573C9.06777 4.67693 9.06777 4.09565 8.70897 3.73687C8.35016 3.37807 7.76887 3.37807 7.41009 3.73687C5.79071 5.35623 4.89844 7.50907 4.89844 9.79815C4.89605 12.0897 5.78826 14.2425 7.40771 15.8618Z" fill="#141414"/>
<path d="M29.1606 9.79842C29.1606 12.9056 27.9503 15.8287 25.752 18.0247C25.3932 18.3835 25.3932 18.9648 25.752 19.3236C25.9314 19.503 26.1658 19.5915 26.4026 19.5915C26.6371 19.5915 26.8715 19.5006 27.0533 19.3236C29.5984 16.7785 31.0001 13.3962 31.0001 9.79848C31.0001 6.19854 29.5984 2.81402 27.0509 0.2691C26.6921 -0.0897 26.1108 -0.0897 25.752 0.2691C25.3932 0.6279 25.3932 1.20918 25.752 1.56796C27.9503 3.76862 29.1606 6.69148 29.1606 9.79842Z" fill="#141414"/>
<path d="M24.2626 9.79834C24.2626 11.5971 23.5617 13.2882 22.2891 14.5608C21.9303 14.9196 21.9303 15.5008 22.2891 15.8596C22.4685 16.039 22.7029 16.1275 22.9398 16.1275C23.1742 16.1275 23.4086 16.0366 23.5904 15.8596C25.2098 14.2403 26.102 12.0874 26.102 9.79834C26.102 7.50681 25.2098 5.35403 23.5904 3.73468C23.2316 3.37588 22.6503 3.37588 22.2915 3.73468C21.9327 4.09348 21.9327 4.67476 22.2915 5.03353C23.5617 6.30605 24.2626 7.99963 24.2626 9.79834Z" fill="#141414"/>
</svg>
