<svg width="100" height="100" viewBox="0 0 100 100" fill="none" xmlns="http://www.w3.org/2000/svg">
<g clip-path="url(#clip0_805_1092)">
<path d="M5 50.3214L5.03563 48.0242C5.52023 45.3432 7.32322 43.301 10.0432 42.5003C13.2572 41.6162 16.6327 41.9688 19.8135 43.1675V49.1037C17.5045 48.0003 15.236 47.4046 12.7773 47.5475C12.1787 47.6667 11.6015 48.0003 11.4399 48.5008C10.4185 51.6607 21.1343 50.2213 21.0606 57.9948C21.0203 62.2986 17.7635 64.6459 13.5992 65.0248C10.7463 65.2845 7.84345 64.7841 5.27793 63.614C5.3682 61.5122 5.35157 59.6415 5.29694 57.6111C7.16882 58.6358 9.04545 59.2388 11.0504 59.601C12.6871 59.7416 14.4164 59.5938 14.5898 58.4118C15.0673 55.1828 6.15211 56.2314 5 50.3214Z" fill="black"/>
<path d="M63.0045 63.5212L62.9523 70.6656L56.6359 72.0001V42.4193L62.1636 42.4122L62.5318 43.985C65.3111 41.4232 69.4065 41.3589 72.3236 43.8182C73.8201 45.0788 74.8629 46.7684 75.4283 48.7153C77.2028 54.8302 75.6754 63.5975 69.0169 64.9177C66.8694 65.3442 64.9904 64.9248 63.0069 63.5212H63.0045ZM67.4039 59.1173C70.6868 57.4826 70.7225 49.6138 67.2875 47.9695C65.7957 47.2545 64.0592 47.7383 62.9618 48.875L62.9879 58.3262C64.1329 59.4319 65.8527 59.8918 67.4039 59.1197V59.1173Z" fill="black"/>
<path d="M86.7736 59.5533C89.5624 60.0681 92.2776 59.4938 94.741 58.3666L94.7196 63.4615C88.8569 66.3808 80.6852 65.642 78.2195 59.0934C76.7918 55.2996 76.9082 50.9696 78.6114 47.3331C80.3147 43.6966 83.9159 41.6614 87.8853 42.0594C93.033 42.5742 95.5415 47.0424 95.9715 52.0062L96 55.8858H83.6451C83.7211 57.6969 84.859 59.203 86.7736 59.5557V59.5533ZM90.0613 51.2246C90.066 50.0641 89.8071 48.9321 89.0137 48.0861C87.6478 46.6325 85.2818 46.9447 84.2176 48.6342C83.7354 49.3968 83.5786 50.2952 83.5429 51.227H90.0613V51.2246Z" fill="black"/>
<path d="M28.4841 57.1823C28.4865 58.4572 29.3939 59.3938 30.5246 59.5058C31.4487 59.5963 32.2706 59.4319 33.2659 59.1221V64.3243C31.3822 65.0082 29.6219 65.2727 27.7049 64.9939C24.6833 64.553 22.3197 62.0151 22.3197 58.8504V38.2657L28.4912 36.9431L28.4698 42.4503H33.2754V47.8479H28.4675L28.4865 57.1823H28.4841Z" fill="black"/>
<path d="M41.5943 64.6149L35.2708 64.6483V42.4526L40.7534 42.4621L41.1524 44.2732C42.2761 42.3025 44.4377 41.7782 46.4046 42.4645L46.3999 48.2553C44.642 47.8168 42.8961 48.0885 41.6014 49.5159L41.5943 64.6149Z" fill="black"/>
<path d="M54.2866 64.6149L47.9369 64.6507V42.4431L54.2866 42.4455V64.6149Z" fill="black"/>
<path d="M54.3007 39.1426L47.9439 40.5248L47.9297 35.3488L54.2794 34L54.3007 39.1426Z" fill="black"/>
</g>
<defs>
<clipPath id="clip0_805_1092">
<rect width="91" height="38" fill="white" transform="translate(5 34)"/>
</clipPath>
</defs>
</svg>
