<svg width="32" height="22" viewBox="0 0 32 22" fill="none" xmlns="http://www.w3.org/2000/svg">
<path d="M29.9574 0H2.04255C0.916221 0 0 0.916221 0 2.04255V12.9362C0 14.0625 0.916221 14.9787 2.04255 14.9787H29.9574C31.0838 14.9787 32 14.0625 32 12.9362V2.04255C32 0.916221 31.0838 0 29.9574 0ZM25.5319 11.0638H6.46808V9.87234H25.5319V11.0638ZM6.46808 12.4255H25.5319V13.617H6.46808V12.4255ZM30.6383 12.9362C30.6383 13.3112 30.3324 13.617 29.9574 13.617H26.8936V9.87234C26.8936 9.11969 26.2846 8.51064 25.5319 8.51064H6.46808C5.71544 8.51064 5.10638 9.11969 5.10638 9.87234V13.617H2.04255C1.66754 13.617 1.3617 13.3112 1.3617 12.9362V2.04255C1.3617 1.66754 1.66755 1.3617 2.04255 1.3617H29.9574C30.3325 1.3617 30.6383 1.66755 30.6383 2.04255V12.9362Z" fill="#141414"/>
<path d="M7.48991 3.40417H5.78778C5.41277 3.40417 5.10693 3.71003 5.10693 4.08503C5.10693 4.46003 5.41279 4.76588 5.78778 4.76588H7.48991C7.86492 4.76588 8.17076 4.46003 8.17076 4.08503C8.17076 3.71003 7.86491 3.40417 7.48991 3.40417Z" fill="#141414"/>
<path d="M15.9992 17.0211C15.6242 17.0211 15.3184 17.327 15.3184 17.702V21.1062C15.3184 21.4812 15.6242 21.7871 15.9992 21.7871C16.3742 21.7871 16.6801 21.4812 16.6801 21.1062V17.702C16.6801 17.327 16.3742 17.0211 15.9992 17.0211Z" fill="#141414"/>
<path d="M21.1066 17.0211C20.7316 17.0211 20.4258 17.327 20.4258 17.702V21.1062C20.4258 21.4812 20.7316 21.7871 21.1066 21.7871C21.4816 21.7871 21.7875 21.4812 21.7875 21.1062V17.702C21.7875 17.327 21.4816 17.0211 21.1066 17.0211Z" fill="#141414"/>
<path d="M10.8923 17.0211C10.5173 17.0211 10.2114 17.327 10.2114 17.702V21.1062C10.2114 21.4812 10.5173 21.7871 10.8923 21.7871C11.2673 21.7871 11.5731 21.4812 11.5731 21.1062V17.702C11.5731 17.327 11.2673 17.0211 10.8923 17.0211Z" fill="#141414"/>
<path d="M5.78704 17.0211C5.41203 17.0211 5.10619 17.327 5.10619 17.702C5.10619 18.4919 4.66735 19.2033 3.95858 19.557L2.07562 20.4972C1.73918 20.6634 1.60222 21.0756 1.77243 21.4094C1.89211 21.6474 2.1328 21.7871 2.38149 21.7871C2.48388 21.7871 2.58893 21.7631 2.68467 21.7153L4.56764 20.7751C5.73918 20.19 6.46656 19.0118 6.46656 17.7046C6.46656 17.3296 6.16071 17.0238 5.78571 17.0238L5.78704 17.0211Z" fill="#141414"/>
<path d="M29.9221 20.4972L28.0391 19.557C27.3317 19.2033 26.8915 18.4945 26.8915 17.702C26.8915 17.327 26.5856 17.0211 26.2106 17.0211C25.8356 17.0211 25.5298 17.327 25.5298 17.702C25.5298 19.0132 26.2585 20.1873 27.4287 20.7724L29.3117 21.7126C29.4101 21.7605 29.5125 21.7844 29.6149 21.7844C29.8635 21.7844 30.1056 21.6448 30.2239 21.4067C30.3901 21.0703 30.2545 20.6607 29.9207 20.4945L29.9221 20.4972Z" fill="#141414"/>
</svg>
