<svg width="21" height="15" viewBox="0 0 21 15" fill="none" xmlns="http://www.w3.org/2000/svg">
<path d="M19.0114 5.7651V2.23222C19.0114 1.0002 18.0399 0 16.8433 0H4.15942C2.96279 0 1.99133 1.00017 1.99133 2.23222V5.7651C0.868001 5.92012 0 6.91355 0 8.11189V14.5996C0 14.8207 0.174126 15 0.388854 15H2.03456C2.20607 15 2.35925 14.8827 2.40639 14.7142L2.86854 13.1169H18.1315L18.5936 14.7142C18.6434 14.8827 18.7952 15 18.9654 15H20.6111C20.8259 15 21 14.8207 21 14.5996V8.11189C21.0013 6.91489 20.1334 5.92011 19.0114 5.7651ZM4.15969 0.799125H16.8422C17.6094 0.799125 18.2326 1.44076 18.2326 2.23063V5.74074H17.3776V4.46693C17.3776 3.32117 16.473 2.38975 15.3601 2.38975H12.9368C11.8239 2.38975 10.9193 3.32117 10.9193 4.46693V5.74074H10.0813V4.46693C10.0813 3.32117 9.17668 2.38975 8.06385 2.38975H5.64046C4.52763 2.38975 3.62296 3.32117 3.62296 4.46693V5.74074H2.76803L2.76934 2.23202C2.76934 1.4421 3.3925 0.799125 4.15969 0.799125ZM16.6012 5.7406H11.7008V4.46679C11.7008 3.76315 12.2573 3.19298 12.938 3.19298H15.3614C16.0448 3.19298 16.5986 3.76587 16.5986 4.46679V5.7406H16.6012ZM9.30475 5.7406H4.40435V4.46679C4.40435 3.76315 4.96079 3.19298 5.64157 3.19298H8.06495C8.74838 3.19298 9.30217 3.76587 9.30217 4.46679L9.30086 5.7406H9.30475ZM0.777909 8.11165C0.777909 7.24896 1.46134 6.54531 2.29924 6.54531H18.6987C19.5366 6.54531 20.22 7.24896 20.22 8.11165V9.95428H0.777976L0.777909 8.11165ZM0.777909 10.759H20.224V12.3159L0.777909 12.3146V10.759ZM1.74411 14.199H0.777909V13.1153H2.05833L1.74411 14.199ZM19.259 14.199L18.9474 13.1153H20.2278V14.199H19.259Z" fill="black"/>
</svg>
