<svg width="30" height="29" viewBox="0 0 30 29" fill="none" xmlns="http://www.w3.org/2000/svg">
<path d="M6.56941 13.7358C4.78392 13.7344 3.07445 13.0078 1.83667 11.7208C0.598928 10.4338 -0.0628771 8.69896 0.00471284 6.91488C0.0723028 5.13081 0.862259 3.45091 2.19434 2.26111C3.52642 1.07125 5.28376 0.475629 7.06514 0.607997L25.8339 1.99501C26.1352 2.01754 26.3676 2.26818 26.3676 2.56954V11.756C26.3676 12.0587 26.1352 12.3094 25.8339 12.3305L7.06514 13.7175C6.89898 13.7302 6.73416 13.7358 6.56941 13.7358ZM6.56941 1.74408C5.10918 1.7469 3.71373 2.33689 2.69569 3.38314C1.67903 4.42935 1.12563 5.8403 1.16225 7.29901C1.19886 8.75783 1.82265 10.1406 2.89144 11.1334C3.99259 12.1642 5.47536 12.6852 6.97928 12.5669L25.2145 11.2207V3.10564L6.97928 1.75947C6.84128 1.74821 6.70458 1.74267 6.56941 1.74408Z" fill="#141414"/>
<path d="M29.4227 14.3256C29.3255 14.3256 29.2298 14.3002 29.1453 14.2538L25.5124 12.2613C25.3293 12.1599 25.2139 11.967 25.2139 11.7572V2.56933C25.2139 2.35952 25.3293 2.1652 25.5124 2.06524L29.1453 0.0713613C29.3241 -0.0272078 29.541 -0.0229832 29.7156 0.07981C29.8916 0.18401 29.9986 0.372698 30 0.575467V13.7484C30 13.9005 29.9381 14.0469 29.831 14.1554C29.7226 14.2638 29.5762 14.3243 29.4227 14.3243L29.4227 14.3256ZM26.3671 11.415L28.8454 12.7738V1.55106L26.3671 2.91129V11.415Z" fill="#141414"/>
<path d="M7.55172 28.2096C6.43506 28.211 5.37193 27.7252 4.64394 26.879C3.91595 26.0313 3.59488 24.9076 3.76387 23.8037L5.4184 13.0427C5.46768 12.7273 5.76198 12.5118 6.07599 12.5597C6.39141 12.609 6.60686 12.9033 6.55896 13.2173L4.90443 23.9794C4.79741 24.6792 4.97202 25.3931 5.39024 25.9634C5.80988 26.5351 6.43787 26.9153 7.13774 27.0237C8.59516 27.2476 9.95821 26.2478 10.1821 24.7904L12.0493 12.6412C12.0986 12.3258 12.3929 12.1104 12.7083 12.1583C13.0223 12.2076 13.2377 12.5019 13.1898 12.8159L11.3227 24.9636V24.965C11.0368 26.8266 9.4358 28.204 7.55172 28.2096Z" fill="#141414"/>
<path d="M6.49197 11.1756C4.8684 11.1756 3.40536 10.1984 2.78443 8.69875C2.16343 7.19909 2.50703 5.47276 3.65467 4.32507C4.8023 3.17738 6.52866 2.83388 8.02837 3.45484C9.52804 4.07583 10.5053 5.54027 10.5053 7.16235C10.5024 9.37731 8.70701 11.1727 6.49197 11.1756ZM6.49197 4.3042C5.33591 4.3042 4.29246 4.99981 3.85033 6.06856C3.40817 7.1373 3.65179 8.3666 4.46993 9.18471C5.28804 10.0028 6.51734 10.2478 7.58609 9.8043C8.65484 9.36213 9.35187 8.32014 9.35187 7.16268C9.34905 5.58418 8.07047 4.3056 6.49197 4.3042Z" fill="#141414"/>
<path d="M7.81273 6.7275H5.17109C4.85286 6.7275 4.59375 6.46981 4.59375 6.15156C4.59375 5.83192 4.85285 5.57422 5.17109 5.57422H7.81273C8.13237 5.57422 8.39007 5.8319 8.39007 6.15156C8.39007 6.46979 8.13239 6.7275 7.81273 6.7275Z" fill="#141414"/>
<path d="M7.81273 8.75093H5.17109C4.85286 8.75093 4.59375 8.49325 4.59375 8.175C4.59375 7.85676 4.85285 7.59766 5.17109 7.59766H7.81273C8.13237 7.59766 8.39007 7.85675 8.39007 8.175C8.39007 8.49323 8.13239 8.75093 7.81273 8.75093Z" fill="#141414"/>
<path d="M10.8496 24.8178C10.7594 24.8178 10.6707 24.7967 10.5905 24.7558C8.84437 23.8772 7.86293 21.972 8.16004 20.0386C8.45715 18.1067 9.96525 16.5845 11.8957 16.272C12.2083 16.2255 12.4998 16.4382 12.5505 16.7507C12.5998 17.0619 12.3899 17.3562 12.0801 17.4097C10.6439 17.6449 9.52157 18.777 9.30053 20.2161C9.07945 21.6552 9.81028 23.0718 11.11 23.7266C11.3493 23.8463 11.4732 24.1152 11.4113 24.3757C11.3493 24.6348 11.1171 24.8192 10.8496 24.8178Z" fill="#141414"/>
<path d="M12.9707 13.2794C12.7426 13.2794 12.5356 13.1442 12.4441 12.9358C12.3512 12.726 12.392 12.4824 12.5455 12.3134C13.8325 10.9067 14.5464 9.06911 14.5464 7.16254C14.5464 5.25594 13.8325 3.4197 12.5455 2.01167C12.4413 1.90043 12.3864 1.74977 12.392 1.5963C12.399 1.44281 12.4652 1.29778 12.5793 1.19498C12.6919 1.09078 12.8426 1.03586 12.9961 1.04431C13.1495 1.05135 13.2932 1.11894 13.396 1.23299C14.8787 2.85233 15.6997 4.96863 15.6997 7.1625C15.6997 9.35774 14.8787 11.4742 13.396 13.0934C13.2876 13.2117 13.1327 13.2808 12.9707 13.2794Z" fill="#141414"/>
</svg>
