<svg width="28" height="22" viewBox="0 0 28 22" fill="none" xmlns="http://www.w3.org/2000/svg">
<path d="M27.9888 1.03281H27.9754C27.86 0.444833 27.3373 0 26.7092 0H1.2908C0.661111 0 0.137822 0.446988 0.0236445 1.03712H0.0111999C0.00808882 1.07006 0 1.10146 0 1.1344V1.27755V12.4578V17.8509C0 18.5562 0.578045 19.1287 1.2908 19.1287H10.9281V20.965H6.81084V22H21.1895V20.965H17.0722V19.1287H26.7095C27.4216 19.1287 28 18.5562 28 17.8509V12.4578V1.27755V1.1344C28 1.09992 27.9925 1.06729 27.9888 1.03281ZM26.7929 17.3904H1.20836H1.19747V12.854H1.20836V1.79719H26.7929V17.3904Z" fill="#141414"/>
</svg>
