<svg width="24" height="24" viewBox="0 0 24 24" fill="none" xmlns="http://www.w3.org/2000/svg">
<path d="M18.6483 23.1478H6.08154V22.0421H18.6483C20.5617 22.0421 22.1144 20.4861 22.1144 18.5759C22.1144 16.6657 20.5584 15.1098 18.6483 15.1098H6.75105V14.004H18.6483C21.1696 14.004 23.2201 16.0557 23.2201 18.5759C23.2201 21.0973 21.1685 23.1478 18.6483 23.1478Z" fill="#141414"/>
<path d="M18.579 23.1478H4.57185C2.05052 23.1478 0 21.0961 0 18.5759V4.5719C0 2.05054 2.05163 0 4.57185 0H18.5757C21.0971 0 23.1476 2.05164 23.1476 4.5719V18.5759C23.1476 21.0973 21.096 23.1478 18.5757 23.1478H18.579ZM4.57185 1.10462C2.65844 1.10462 1.10571 2.66062 1.10571 4.57079V18.5748C1.10571 20.4882 2.6617 22.041 4.57185 22.041H18.5757C20.4891 22.041 22.0419 20.485 22.0419 18.5748V4.5719C22.0419 2.65847 20.4859 1.10572 18.5757 1.10572L4.57185 1.10462Z" fill="#141414"/>
<path d="M16.4691 19.2302H4.57185C2.05052 19.2302 0 17.1786 0 14.6583C0 12.137 2.05163 10.0864 4.57185 10.0864H20.2536C21.8517 10.0864 23.1506 11.3854 23.1506 12.9834H22.0449C22.0449 11.9965 21.2404 11.192 20.2535 11.192H4.57171C2.6583 11.192 1.10558 12.748 1.10558 14.6582C1.10558 16.5683 2.66157 18.1244 4.57171 18.1244H16.4689L16.4691 19.2302Z" fill="#141414"/>
</svg>
