<svg width="35" height="30" viewBox="0 0 35 30" fill="none" xmlns="http://www.w3.org/2000/svg">
<path fill-rule="evenodd" clip-rule="evenodd" d="M18.7103 22.3949V19.2712H8.88079V21.6622C9.84187 22.0201 10.3876 22.4607 11.4761 22.3904C13.2319 22.2772 14.6832 20.5333 17.8543 22.0645C18.1631 22.2144 18.4464 22.3215 18.7103 22.3949ZM0.473753 28.9744C-0.51131 28.5002 0.194877 26.9735 1.17992 27.4477C4.54742 29.0707 5.37212 25.5753 9.51634 27.5777C12.8793 29.2023 13.7085 25.7054 17.8528 27.7062C21.2158 29.3308 22.045 25.8339 26.1892 27.8363C29.5522 29.4608 30.3752 25.9654 34.5256 27.9648C35.5107 28.4405 34.803 29.9656 33.8194 29.4914C30.4534 27.8684 29.6272 31.3638 25.483 29.3614C22.12 27.7368 21.2908 31.2337 17.1466 29.2314C13.7836 27.6068 12.9544 31.1037 8.81017 29.1013C5.44866 27.4783 4.61951 30.9753 0.473753 28.9744ZM7.22226 21.3149V8.77123H0.82611C-0.265428 8.77123 -0.265428 7.07936 0.82611 7.07936H7.22226C7.22226 4.8215 6.93739 3.01015 8.55369 1.36108C11.4234 -1.56683 16.2902 0.554911 16.2902 4.62859V7.0792H18.7086C18.7086 4.82134 18.4237 3.00999 20.0401 1.36092C22.9098 -1.56699 27.7765 0.556282 27.7765 4.62843V7.07905H34.1742C35.2658 7.07905 35.2658 8.77092 34.1742 8.77092H20.3682V22.4361C22.1059 22.0307 23.3624 20.8299 26.1902 22.196C29.5532 23.8205 30.3762 20.3251 34.5266 22.326C35.5117 22.8017 34.804 24.3269 33.8204 23.8526C30.4529 22.2296 29.6282 25.725 25.484 23.7226C22.121 22.0981 21.2918 25.595 17.1476 23.5926C13.7846 21.968 12.9554 25.465 8.81117 23.4626C5.44666 21.838 4.62511 25.3334 0.474751 23.3325C-0.510312 22.8568 0.197372 21.3316 1.18092 21.8059C3.87073 23.1031 4.68188 21.2215 7.22165 21.3148L7.22226 21.3149ZM18.7103 17.5793V14.1496H8.88079V17.5793H18.7103ZM18.7103 12.4578V8.76962L8.88079 8.77115V12.4593L18.7103 12.4578ZM26.1202 7.07944V4.62882C26.1202 2.05583 23.0405 0.692757 21.2129 2.55756C20.6911 3.08992 20.3673 3.82266 20.3673 4.62882V7.07944H26.1202ZM8.88079 7.07944H14.6336V4.62882C14.6336 2.05583 11.554 0.692757 9.72637 2.55756C9.20459 3.08992 8.88076 3.82266 8.88076 4.62882L8.88079 7.07944Z" fill="#F5F3EC"/>
</svg>
