<svg width="25" height="27" viewBox="0 0 25 27" fill="none" xmlns="http://www.w3.org/2000/svg">
<path d="M22.2068 0H2.4207C1.08584 0 0 1.08581 0 2.4207V22.2068C0 23.5206 1.0515 24.5898 2.35759 24.6241V26.1671C2.35759 26.4117 2.55572 26.6098 2.80033 26.6098H6.25386C6.49847 26.6098 6.6966 26.4117 6.6966 26.1671V24.6263H17.9322V26.1671C17.9322 26.4117 18.1303 26.6098 18.3749 26.6098H21.8284C22.073 26.6098 22.2712 26.4117 22.2712 26.1671V24.6241C23.5762 24.5898 24.6288 23.5195 24.6288 22.2068L24.6277 2.4207C24.6277 1.08584 23.5416 0 22.2068 0ZM5.81103 25.7255H3.24313V24.6275H5.81103V25.7255ZM21.3856 25.7255H18.8177V24.6275H21.3856V25.7255ZM23.7421 22.2079C23.7421 23.0546 23.0536 23.7431 22.2069 23.7431H2.42081C1.57406 23.7431 0.885595 23.0546 0.885595 22.2079L0.884488 2.4207C0.884488 1.57395 1.57295 0.885482 2.4197 0.885482H22.2058C23.0525 0.885482 23.741 1.57395 23.741 2.4207V22.2068L23.7421 22.2079Z" fill="#141414"/>
<path d="M21.2492 2.92432H3.35479C3.11018 2.92432 2.91205 3.12244 2.91205 3.36706V5.38264H2.72831C2.30881 5.38264 1.9668 5.72355 1.9668 6.14416V9.01652C1.9668 9.43713 2.3077 9.77803 2.72831 9.77803H2.91205V14.8506H2.72831C2.30881 14.8506 1.9668 15.1915 1.9668 15.6122V18.4845C1.9668 18.9051 2.3077 19.246 2.72831 19.246H2.91205V21.2616C2.91205 21.5062 3.11018 21.7044 3.35479 21.7044H21.248C21.4927 21.7044 21.6908 21.5062 21.6908 21.2616L21.6919 3.36723C21.6919 3.12261 21.4938 2.92432 21.2492 2.92432ZM2.85212 6.26818H3.85494V8.89252H2.85212V6.26818ZM2.85212 15.735H3.85494V18.3594H2.85212V15.735ZM20.8063 20.8179H3.79739V19.245H3.97781C4.39842 19.245 4.73932 18.903 4.73932 18.4835V15.6111C4.73932 15.1905 4.39842 14.8496 3.97781 14.8496H3.79739V9.77701H3.97781C4.39842 9.77701 4.73932 9.43611 4.73932 9.0155V6.14314C4.73932 5.72253 4.39842 5.38162 3.97781 5.38162H3.79739V3.80878H20.8052V20.8166L20.8063 20.8179Z" fill="#141414"/>
<path d="M12.3027 14.5173C13.5181 14.5173 14.5065 13.5289 14.5065 12.3147C14.5065 11.0994 13.518 10.1121 12.3027 10.1121C11.0874 10.1121 10.1001 11.1005 10.1001 12.3147C10.1001 13.53 11.0885 14.5173 12.3027 14.5173ZM12.3027 10.9964C13.0299 10.9964 13.621 11.5874 13.621 12.3135C13.621 13.0396 13.0299 13.6306 12.3027 13.6306C11.5755 13.6306 10.9856 13.0396 10.9856 12.3135C10.9856 11.5874 11.5766 10.9964 12.3027 10.9964Z" fill="#141414"/>
<path d="M7.64292 16.9712C7.72925 17.0575 7.84215 17.1007 7.95616 17.1007C8.06906 17.1007 8.18307 17.0575 8.26941 16.9712L9.41057 15.83C10.2219 16.4985 11.2324 16.8638 12.2994 16.8638C13.3663 16.8638 14.378 16.4985 15.1882 15.83L16.3293 16.9712C16.4156 17.0575 16.5285 17.1007 16.6426 17.1007C16.7555 17.1007 16.8695 17.0575 16.9558 16.9712C17.1285 16.7985 17.1285 16.5173 16.9558 16.3447L15.8158 15.2046C16.4887 14.3944 16.854 13.3839 16.854 12.3136C16.854 11.2521 16.4887 10.2415 15.8191 9.42478L16.9569 8.28252C17.1296 8.10874 17.1285 7.8287 16.9547 7.65605C16.7821 7.48338 16.5009 7.48449 16.3283 7.65716L15.1882 8.80165C14.3758 8.1309 13.3663 7.76452 12.2971 7.76452C11.2279 7.76452 10.2207 8.12869 9.40835 8.79831L8.2672 7.65716C8.09453 7.48449 7.81448 7.48449 7.64073 7.65716C7.46806 7.82983 7.46806 8.10987 7.64073 8.28363L8.78299 9.42588C8.11334 10.2427 7.7492 11.2522 7.7492 12.3135C7.7492 13.375 8.11337 14.3845 8.78299 15.2012L7.64073 16.3435C7.46806 16.5161 7.46806 16.7973 7.64073 16.9699L7.64292 16.9712ZM9.70831 9.72238C10.4001 9.03171 11.3199 8.65096 12.3006 8.65096C13.2801 8.65096 14.201 9.03173 14.8928 9.72238C14.9061 9.73566 14.9205 9.74895 14.936 9.76002C15.6045 10.4529 15.9709 11.3583 15.9709 12.3146C15.9709 13.2964 15.5879 14.2162 14.8928 14.9069C14.2021 15.5975 13.2812 15.9783 12.3005 15.9783C11.3199 15.9783 10.4001 15.5975 9.71051 14.908C9.01873 14.2096 8.63796 13.2887 8.63796 12.3157C8.63796 11.3417 9.01873 10.4208 9.70938 9.7246L9.70831 9.72238Z" fill="#141414"/>
</svg>
