<svg width="15" height="15" viewBox="0 0 15 15" fill="none" xmlns="http://www.w3.org/2000/svg">
<path fill-rule="evenodd" clip-rule="evenodd" d="M0 3.28125C0 2.65965 0.24693 2.06351 0.686468 1.62397C1.12601 1.18443 1.72215 0.9375 2.34375 0.9375H12.6562C13.2779 0.9375 13.874 1.18443 14.3135 1.62397C14.7531 2.06351 15 2.65965 15 3.28125V11.5819C15 12.2035 14.7531 12.7996 14.3135 13.2392C13.874 13.6787 13.2779 13.9256 12.6562 13.9256H2.34375C1.72215 13.9256 1.12601 13.6787 0.686468 13.2392C0.24693 12.7996 0 12.2035 0 11.5819L0 3.28125ZM2.34375 1.875C1.97079 1.875 1.6131 2.02316 1.34938 2.28688C1.08566 2.5506 0.9375 2.90829 0.9375 3.28125V11.5819C0.9375 11.9548 1.08566 12.3125 1.34938 12.5762C1.6131 12.84 1.97079 12.9881 2.34375 12.9881H12.6562C13.0292 12.9881 13.3869 12.84 13.6506 12.5762C13.9143 12.3125 14.0625 11.9548 14.0625 11.5819V3.28125C14.0625 2.90829 13.9143 2.5506 13.6506 2.28688C13.3869 2.02316 13.0292 1.875 12.6562 1.875H2.34375ZM12.5194 7.96875C12.6073 8.05665 12.6566 8.17586 12.6566 8.30016C12.6566 8.42445 12.6073 8.54366 12.5194 8.63156L9.70687 11.4441C9.61898 11.5321 9.49972 11.5816 9.37533 11.5817C9.25094 11.5818 9.13161 11.5324 9.04359 11.4445C8.95557 11.3566 8.90608 11.2374 8.90599 11.113C8.9059 10.9886 8.95523 10.8693 9.04313 10.7813L11.8556 7.96875C11.8992 7.9251 11.9509 7.89046 12.0078 7.86683C12.0648 7.8432 12.1258 7.83104 12.1875 7.83104C12.2492 7.83104 12.3102 7.8432 12.3672 7.86683C12.4241 7.89046 12.4758 7.9251 12.5194 7.96875ZM12.5194 10.3125C12.6073 10.4004 12.6566 10.5196 12.6566 10.6439C12.6566 10.7682 12.6073 10.8874 12.5194 10.9753L12.0506 11.4441C11.9627 11.5321 11.8435 11.5816 11.7191 11.5817C11.5947 11.5818 11.4754 11.5324 11.3873 11.4445C11.2993 11.3566 11.2498 11.2374 11.2497 11.113C11.2497 10.9886 11.299 10.8693 11.3869 10.7813L11.8556 10.3125C11.8992 10.2688 11.9509 10.2342 12.0078 10.2106C12.0648 10.187 12.1258 10.1748 12.1875 10.1748C12.2492 10.1748 12.3102 10.187 12.3672 10.2106C12.4241 10.2342 12.4758 10.2688 12.5194 10.3125Z" fill="#8DA7C0"/>
</svg>
