<svg width="20" height="26" viewBox="0 0 20 26" fill="none" xmlns="http://www.w3.org/2000/svg">
<path d="M7.37554 0H9.63026C10.3395 0 10.9821 0.29658 11.4482 0.77567C11.9143 1.25476 12.2028 1.91532 12.2028 2.64432V6.51112C12.2028 7.24012 11.9143 7.89965 11.4482 8.37978C10.9821 8.85886 10.3395 9.15545 9.63026 9.15545H8.08071C7.69836 9.15545 7.35234 9.31514 7.10114 9.57334C6.84993 9.83155 6.69459 10.1883 6.69459 10.5803V15.4197C6.69459 15.8128 6.84994 16.1684 7.10114 16.4267C7.35233 16.6849 7.69937 16.8446 8.08071 16.8446H9.63026C10.3395 16.8446 10.9821 17.1411 11.4482 17.6202C11.9143 18.0993 12.2028 18.7599 12.2028 19.4889V23.3557C12.2028 24.0847 11.9143 24.7452 11.4482 25.2243C10.9821 25.7034 10.3395 26 9.63026 26H7.37554C5.34678 26 3.50269 25.1466 2.16594 23.7736C0.829243 22.3996 0 20.5041 0 18.4186V7.58327C0 5.49789 0.83025 3.60231 2.16594 2.22826C3.50264 0.854248 5.34665 0.00185826 7.37554 0.00185826V0ZM14.1871 17.0252C13.9561 17.2637 13.5808 17.2637 13.3498 17.0252C13.1178 16.7867 13.1178 16.402 13.3498 16.1635C14.2002 15.2893 14.6239 14.1445 14.6239 12.9997C14.6239 11.8548 14.1992 10.709 13.3498 9.83581C13.1178 9.59731 13.1178 9.21257 13.3498 8.97408C13.5808 8.73557 13.9561 8.73557 14.1871 8.97408C15.2686 10.0857 15.8093 11.5437 15.8093 12.9996C15.8093 14.4566 15.2685 15.9137 14.1871 17.0252ZM17.1501 20.0709C16.9181 20.3084 16.5438 20.3084 16.3118 20.0709C16.0798 19.8324 16.0798 19.4477 16.3118 19.2092C17.9804 17.494 18.8137 15.2468 18.8137 13.0007C18.8137 10.7536 17.9804 8.50529 16.3118 6.79223C16.0798 6.55476 16.0798 6.16899 16.3118 5.93153C16.5438 5.69302 16.9181 5.69302 17.1501 5.93153C19.0497 7.88417 20 10.4434 20 13.0017C20 15.561 19.0497 18.1191 17.1501 20.0719V20.0709ZM9.63039 1.21956H7.37567C5.67379 1.21956 4.12625 1.93507 3.00438 3.08925C1.88255 4.24238 1.18546 5.83418 1.18546 7.58255V18.4179C1.18546 20.1673 1.88154 21.7569 3.00438 22.9112C4.1262 24.0643 5.67477 24.7809 7.37567 24.7809H9.63039C10.0127 24.7809 10.3588 24.6212 10.61 24.3619C10.8612 24.1037 11.0165 23.747 11.0165 23.355V19.4882C11.0165 19.0962 10.8612 18.7406 10.61 18.4813C10.3588 18.2231 10.0117 18.0624 9.63039 18.0624H8.08084C7.37164 18.0624 6.72901 17.7658 6.26293 17.2867C5.79685 16.8076 5.50833 16.147 5.50833 15.418V10.5786C5.50833 9.84956 5.79685 9.189 6.26293 8.70991C6.72901 8.23082 7.37164 7.93424 8.08084 7.93424H9.63039C10.0127 7.93424 10.3588 7.77455 10.61 7.51531C10.8612 7.2571 11.0165 6.90038 11.0165 6.50839V2.64159C11.0165 2.24856 10.8612 1.89289 10.61 1.63467C10.3588 1.37646 10.0117 1.21574 9.63039 1.21574V1.21956Z" fill="#141414"/>
</svg>
