<svg width="35" height="35" viewBox="0 0 35 35" fill="none" xmlns="http://www.w3.org/2000/svg">
<path d="M32.8349 2.93582H31.4254V2.57299C31.4254 1.15419 30.2797 0 28.8714 0H6.12865C4.72029 0 3.57458 1.15419 3.57458 2.57299V2.93573H2.16511C0.971289 2.93573 0 3.91421 0 5.11687C0 6.31953 0.971289 7.29792 2.16511 7.29792H3.57458V19.2102V24.2422V32.427C3.57458 33.8458 4.72029 35 6.12865 35H28.8714C30.2797 35 31.4254 33.8458 31.4254 32.427V24.2422V19.2102V7.29792H32.8349C34.0287 7.29792 35 6.31944 35 5.11678C34.9999 3.91421 34.0287 2.93582 32.8349 2.93582ZM6.12865 1.40345H28.8714C29.5115 1.40345 30.0323 1.92806 30.0323 2.57299V18.5085H4.96771V2.57299C4.96771 1.92815 5.48846 1.40345 6.12865 1.40345ZM30.0323 23.5406H4.96771V19.912H30.0323V23.5406ZM2.16511 5.89448C1.73946 5.89448 1.39313 5.54558 1.39313 5.11678C1.39313 4.68798 1.73946 4.33918 2.16511 4.33918H3.57458V5.89448H2.16511ZM28.8714 33.5966H6.12865C5.48846 33.5966 4.96771 33.072 4.96771 32.4271V24.944H30.0323V32.4271C30.0323 33.0719 29.5115 33.5966 28.8714 33.5966ZM32.8349 5.89448H31.4254V4.33918H32.8349C33.2605 4.33918 33.6069 4.68807 33.6069 5.11687C33.6068 5.54567 33.2605 5.89448 32.8349 5.89448Z" fill="#F5F3EC"/>
</svg>
